HIERARCHY
ROOT Pelvis
{
	OFFSET -0.001795 -0.223333 0.028219
	CHANNELS 6 Xposition Yposition Zposition Zrotation Yrotation Xrotation 
	JOINT Left_hip
	{
		OFFSET 0.069520 -0.091406 -0.006815
		CHANNELS 3 Zrotation Yrotation Xrotation
		JOINT Left_knee
		{
			OFFSET 0.034277 -0.375199 -0.004496
			CHANNELS 3 Zrotation Yrotation Xrotation
			JOINT Left_ankle
			{
				OFFSET -0.013596 -0.397960 -0.043693
				CHANNELS 3 Zrotation Yrotation Xrotation
				JOINT Left_foot
				{
					OFFSET 0.026358 -0.055791 0.119288
					CHANNELS 3 Zrotation Yrotation Xrotation
					End Site
					{
						OFFSET 0.000000 0.000000 0.000000
					}
				}
			}
		}
	}
	JOINT Right_hip
	{
		OFFSET -0.067670 -0.090522 -0.004320
		CHANNELS 3 Zrotation Yrotation Xrotation
		JOINT Right_knee
		{
			OFFSET -0.038290 -0.382569 -0.008850
			CHANNELS 3 Zrotation Yrotation Xrotation
			JOINT Right_ankle
			{
				OFFSET 0.015774 -0.398415 -0.042312
				CHANNELS 3 Zrotation Yrotation Xrotation
				JOINT Right_foot
				{
					OFFSET -0.025372 -0.048144 0.123348
					CHANNELS 3 Zrotation Yrotation Xrotation
					End Site
					{
						OFFSET 0.000000 0.000000 0.000000
					}
				}
			}
		}
	}
	JOINT Spine1
	{
		OFFSET -0.002533 0.108963 -0.026696
		CHANNELS 3 Zrotation Yrotation Xrotation
		JOINT Spine2
		{
			OFFSET 0.005487 0.135180 0.001092
			CHANNELS 3 Zrotation Yrotation Xrotation
			JOINT Spine3
			{
				OFFSET 0.001457 0.052922 0.025425
				CHANNELS 3 Zrotation Yrotation Xrotation
				JOINT Neck
				{
					OFFSET -0.002778 0.213870 -0.042857
					CHANNELS 3 Zrotation Yrotation Xrotation
					JOINT Head
					{
						OFFSET 0.005152 0.064970 0.051349
						CHANNELS 3 Zrotation Yrotation Xrotation
						End Site
						{
							OFFSET 0.000000 0.000000 0.000000
						}
					}
				}
				JOINT Left_collar
				{
					OFFSET 0.078845 0.121749 -0.034090
					CHANNELS 3 Zrotation Yrotation Xrotation
					JOINT Left_shoulder
					{
						OFFSET 0.090977 0.030469 -0.008868
						CHANNELS 3 Zrotation Yrotation Xrotation
						JOINT Left_elbow
						{
							OFFSET 0.259612 -0.012772 -0.027456
							CHANNELS 3 Zrotation Yrotation Xrotation
							JOINT Left_wrist
							{
								OFFSET 0.249234 0.008986 -0.001171
								CHANNELS 3 Zrotation Yrotation Xrotation
								JOINT Left_palm
								{
									OFFSET 0.084042 -0.008162 -0.014945
									CHANNELS 3 Zrotation Yrotation Xrotation
									End Site
									{
										OFFSET 0.000000 0.000000 0.000000
									}
								}
							}
						}
					}
				}
				JOINT Right_collar
				{
					OFFSET -0.081759 0.118833 -0.038615
					CHANNELS 3 Zrotation Yrotation Xrotation
					JOINT Right_shoulder
					{
						OFFSET -0.096012 0.032551 -0.009143
						CHANNELS 3 Zrotation Yrotation Xrotation
						JOINT Right_elbow
						{
							OFFSET -0.253742 -0.013329 -0.021401
							CHANNELS 3 Zrotation Yrotation Xrotation
							JOINT Right_wrist
							{
								OFFSET -0.255298 0.007772 -0.005559
								CHANNELS 3 Zrotation Yrotation Xrotation
								JOINT Right_palm
								{
									OFFSET -0.084622 -0.006117 -0.010315
									CHANNELS 3 Zrotation Yrotation Xrotation
									End Site
									{
										OFFSET 0.000000 0.000000 0.000000
									}
								}
							}
						}
					}
				}
			}
		}
	}
}
MOTION
Frames: 13
Frame Time: 0.033333
-0.067320 0.452429 0.014755 -10.582301 -28.297687 9.416854 53.054851 26.808324 -22.148421 -6.342158 1.911695 73.067352 -13.912716 12.800129 -7.877958 8.349195 4.343049 -19.740440 -14.008844 -13.559570 -65.004805 8.787070 0.439590 65.803316 20.662001 -2.209964 -7.747595 -43.400033 -11.376480 -12.097792 -7.706640 -7.185511 38.346779 -8.663139 -6.518289 -15.937833 -0.184757 0.057844 4.318452 -14.762250 -7.621208 4.308831 21.514052 2.248439 -27.238474 35.674762 -21.986607 -26.033419 9.553657 -28.789548 -38.078759 82.159682 -49.470424 -63.453952 -1.819045 -2.664500 8.499311 0.000000 0.000000 0.000000 -50.430528 25.007821 -21.245850 -28.077849 21.262001 -50.246337 -2.321034 76.574815 31.296172 14.538759 1.053835 17.299828 0.000000 0.000000 0.000000 
-0.069199 0.452766 0.015849 -11.115895 -28.641246 10.032146 53.657189 26.661044 -21.497793 -6.347715 1.644094 72.489805 -13.542995 13.072067 -8.142043 7.645793 4.644568 -19.948972 -13.653919 -13.189851 -65.366319 9.229696 0.349004 65.978103 19.769154 -1.970229 -8.569486 -42.735609 -11.743501 -11.524629 -7.938716 -7.369330 38.203081 -8.476268 -6.742066 -16.073486 -0.096374 -0.188619 4.114019 -14.871323 -7.202666 4.557588 21.381454 2.126650 -28.296139 35.885590 -21.601758 -25.846383 8.623022 -27.912526 -37.455641 85.189759 -49.774105 -66.346839 -2.059182 -3.007156 8.516297 0.000000 0.000000 0.000000 -50.586759 24.720613 -21.008103 -27.837630 20.758706 -50.097777 -1.816593 78.091516 31.880997 14.597459 1.784429 16.688451 0.000000 0.000000 0.000000 
-0.070721 0.450283 0.017004 -11.727323 -29.083733 10.301809 53.797653 26.257649 -21.156203 -6.371746 1.495144 72.476936 -13.019904 13.736622 -8.255583 6.858901 4.641668 -20.112517 -13.409604 -12.742150 -65.321391 9.657686 -0.085200 66.273694 19.345458 -2.264854 -8.854366 -42.076617 -11.679931 -11.307239 -8.244368 -7.643735 38.257041 -8.463480 -7.011468 -16.427880 0.026315 -0.346062 4.676688 -14.765522 -7.097722 5.026341 21.175796 2.405488 -28.904910 35.811493 -21.086889 -25.505770 7.917149 -27.318508 -36.663685 86.282445 -49.831874 -67.042491 -1.960905 -3.369032 8.183890 0.000000 0.000000 0.000000 -50.198484 24.239781 -20.249263 -27.673759 20.156792 -49.899207 0.157235 78.869022 34.208748 14.577749 2.101572 16.826926 0.000000 0.000000 0.000000 
-0.072309 0.448370 0.018298 -12.143605 -29.667310 10.102018 54.142225 26.124978 -20.661926 -6.252866 2.008259 72.695432 -12.887128 14.111497 -8.089194 6.527541 4.712140 -20.159924 -13.077222 -12.441829 -64.960634 10.092655 -0.521113 66.675712 19.097596 -2.072226 -9.645327 -41.560919 -11.373358 -11.106983 -8.343359 -7.860076 38.227680 -8.169393 -6.849471 -16.848954 0.002693 -0.388386 5.298467 -14.600355 -6.426678 5.027792 20.503726 2.686032 -29.333994 35.437232 -20.402593 -24.910146 7.289187 -26.702316 -36.394026 87.162694 -50.001804 -67.041207 -1.827175 -3.508412 8.176279 0.000000 0.000000 0.000000 -49.438830 24.149605 -19.950240 -27.428619 19.699057 -50.029232 -2.040038 79.312252 32.270499 14.240457 1.971132 16.715047 0.000000 0.000000 0.000000 
-0.073781 0.446839 0.019515 -12.220171 -30.227050 9.999163 54.849670 26.011949 -20.404977 -6.142233 2.133923 73.057407 -12.798916 14.253766 -7.588179 6.341359 4.598461 -20.261198 -12.724468 -12.278104 -64.882172 10.108388 -0.756133 66.781322 18.997432 -1.873838 -10.141910 -41.237758 -11.170192 -11.013867 -8.477951 -7.838870 37.886256 -8.004058 -6.701062 -16.565391 0.011960 -0.392417 5.360171 -14.448984 -5.436563 4.838775 19.844546 2.774382 -29.432928 35.118435 -19.794141 -24.384441 6.743181 -26.109519 -36.290801 87.850066 -49.897290 -67.313503 -1.667215 -3.590310 7.985114 0.000000 0.000000 0.000000 -48.784996 23.905786 -19.738838 -27.216981 19.294394 -50.439768 -5.718215 78.936226 28.957616 13.916392 1.768181 17.202954 0.000000 0.000000 0.000000 
-0.075589 0.444499 0.020202 -12.344355 -30.725552 10.351029 55.671287 25.467541 -20.368748 -6.242283 1.413176 73.614780 -12.898664 14.390044 -6.982736 5.654919 4.229019 -20.504640 -12.349885 -12.548135 -65.346691 9.955892 -1.279535 67.078353 19.143553 -2.197945 -9.621355 -41.359805 -10.532559 -10.680212 -8.784150 -7.824537 37.450326 -7.980707 -6.344825 -16.162933 0.041503 -0.335965 5.291812 -14.578080 -5.022019 5.555925 20.074098 2.528110 -29.438026 35.178487 -19.301007 -24.054360 7.106083 -25.886755 -36.564726 89.771433 -50.073918 -68.975124 -1.105968 -3.918173 8.288443 0.000000 0.000000 0.000000 -48.447867 23.958391 -19.565083 -27.272694 18.971739 -50.916881 -7.083932 77.963400 28.125855 13.502923 1.874420 17.186223 0.000000 0.000000 0.000000 
-0.077814 0.443647 0.020775 -12.299163 -31.280720 10.523110 56.133243 25.463312 -20.241909 -6.437136 1.021297 74.350189 -13.174587 14.196220 -6.578647 5.264106 4.008874 -21.115990 -11.976158 -12.845207 -66.157958 10.143855 -1.494277 67.146342 19.505612 -2.172379 -9.465371 -41.992066 -10.153311 -10.341324 -8.939119 -7.722719 37.340485 -7.956998 -6.160247 -16.118774 0.089238 -0.360003 5.139688 -14.644303 -5.250486 5.942553 20.441768 2.658478 -29.835119 35.391858 -18.839441 -23.995647 7.132463 -25.515416 -37.344353 93.006367 -49.756029 -72.170345 -0.583814 -4.067623 8.759060 0.000000 0.000000 0.000000 -48.757362 24.210370 -19.832572 -27.633354 18.167213 -51.582704 -8.356324 76.747983 27.049032 13.006045 1.942767 16.496064 0.000000 0.000000 0.000000 
-0.079593 0.440687 0.021621 -12.090577 -31.878381 10.189311 56.366030 25.072090 -19.955534 -6.913942 0.315536 75.028337 -13.144915 14.226041 -5.483808 5.127007 3.920883 -21.577377 -12.387904 -13.633163 -66.330988 10.337511 -1.794148 66.972130 19.741714 -2.312352 -8.912320 -42.061684 -9.843945 -10.506304 -8.921795 -7.212597 37.789602 -8.101615 -5.746677 -16.060530 -0.068168 -0.121641 5.003889 -14.684399 -5.323871 6.228223 20.681256 2.113819 -30.309003 35.918015 -17.859838 -23.728836 6.873213 -24.841939 -37.691585 94.707800 -50.485069 -74.156994 -0.813097 -4.344814 8.340975 0.000000 0.000000 0.000000 -48.768235 24.223133 -19.571176 -27.322563 17.598275 -52.250446 -11.450854 75.770831 24.116617 12.999478 1.917561 15.693233 0.000000 0.000000 0.000000 
-0.080689 0.435254 0.022076 -11.891162 -32.373715 9.991484 56.445431 24.404335 -19.698505 -7.295093 -0.324322 75.830201 -13.309238 14.355423 -4.477586 5.023513 4.033354 -22.089288 -12.920906 -14.275707 -66.664815 10.136191 -2.486382 67.206450 20.086838 -2.813275 -8.514295 -42.125559 -9.509297 -10.688232 -8.783494 -7.028868 37.997355 -8.196428 -5.382218 -16.471904 -0.041906 0.171720 5.269678 -14.763469 -5.464008 6.229498 20.694231 2.140501 -30.635342 36.440251 -16.844239 -23.341372 7.509479 -23.682424 -37.956201 95.553779 -51.477029 -75.101143 -0.749959 -4.552436 8.615705 0.000000 0.000000 0.000000 -48.787957 23.883517 -18.969110 -26.854439 17.185921 -52.122918 -13.360362 75.469687 21.568585 13.385698 1.628156 15.438451 0.000000 0.000000 0.000000 
-0.081070 0.434962 0.022004 -11.731873 -32.801441 9.726095 56.623733 24.634565 -19.157354 -7.311922 0.207405 77.156226 -13.265496 14.684916 -3.492604 5.183916 4.333692 -22.679580 -13.421627 -14.375700 -66.891983 10.525983 -2.778894 67.806426 20.207935 -2.500197 -8.906693 -42.042992 -9.806638 -11.089481 -8.741735 -7.341652 38.125338 -8.273292 -5.191473 -16.706441 -0.208074 0.254478 5.096960 -14.676489 -5.261278 5.861565 20.456056 2.487230 -30.951732 36.932312 -16.047380 -23.176468 7.666014 -22.843129 -38.231933 95.556935 -52.074803 -74.853602 -0.415370 -4.672748 8.456318 0.000000 0.000000 0.000000 -48.915804 23.775319 -18.943283 -27.530019 17.565972 -52.664385 -12.331972 74.778356 21.665960 12.984539 1.215984 15.157317 0.000000 0.000000 0.000000 
-0.081221 0.433607 0.022238 -11.696760 -33.113523 9.510311 56.805968 24.725810 -19.178597 -7.701653 0.387811 78.405841 -13.071218 14.454043 -3.338703 5.283196 4.420945 -23.128984 -13.590982 -14.353076 -66.855553 10.425598 -3.069964 68.061556 19.857622 -2.668291 -9.046542 -42.003906 -9.991089 -11.336131 -8.802161 -7.338395 37.741999 -8.475905 -4.833391 -16.620269 -0.277389 0.274848 4.869513 -14.459011 -5.231598 5.661225 20.468921 2.069707 -30.915896 37.098359 -15.538949 -23.106935 7.758440 -22.427926 -38.059451 93.775363 -52.363889 -73.035728 -0.368244 -4.000730 8.129071 0.000000 0.000000 0.000000 -49.124808 23.800653 -18.958004 -28.141761 18.030580 -53.334449 -10.863083 74.045851 22.410738 12.972978 1.148999 14.942761 0.000000 0.000000 0.000000 
-0.081636 0.426136 0.022407 -11.222605 -33.430873 9.250241 56.836344 24.577221 -19.078635 -8.304215 0.215269 79.323523 -12.851092 14.143158 -3.739067 5.055456 4.276948 -23.099160 -13.715871 -14.846983 -66.971233 9.984710 -3.007948 67.917576 20.046822 -2.929426 -9.051427 -42.460177 -9.972119 -11.523579 -8.944858 -7.227972 37.236160 -8.777047 -4.720727 -16.450080 -0.398388 0.585734 5.014503 -14.622238 -4.751571 6.216561 20.220039 2.463033 -29.805732 37.499333 -15.146642 -23.142124 7.753761 -22.265215 -37.894604 92.052921 -52.821422 -71.387450 -0.186620 -3.635444 7.791801 0.000000 0.000000 0.000000 -49.539488 23.678374 -19.005534 -28.722059 18.947498 -53.775683 -10.876729 73.244877 22.215093 12.896489 1.155700 14.827769 0.000000 0.000000 0.000000 
-0.082312 0.422577 0.022569 -10.727946 -33.745674 8.819012 56.771602 24.864746 -18.939416 -8.255448 0.654677 80.266334 -12.639032 13.899809 -4.300901 5.078741 4.169463 -23.224724 -13.572551 -14.898788 -67.045672 9.993670 -2.601178 67.971104 20.546678 -2.633287 -9.492062 -43.362845 -9.901718 -11.742727 -8.787821 -7.149297 36.921652 -8.768754 -4.717630 -16.621081 -0.496051 0.950949 5.704830 -14.859203 -4.773763 6.778348 20.545097 2.107266 -29.379442 37.855770 -14.635625 -22.898461 7.315649 -22.592419 -37.959184 91.154734 -52.742127 -70.307875 -0.397995 -3.139634 7.034703 0.000000 0.000000 0.000000 -50.369774 23.612435 -19.545393 -29.831877 20.060286 -54.365658 -11.366973 72.487438 22.485784 13.085514 1.147683 14.558984 0.000000 0.000000 0.000000 
